<svg id="Layer_1" data-name="Layer 1" xmlns="http://www.w3.org/2000/svg" viewBox="0 0 980 948.6"><defs><style>.cls-1{fill:#fff;}</style></defs><title>arraw</title><path class="cls-1" d="M990,484.3c0,8.5-3.3,16-9.8,22.6L522.6,964.5c-6.5,6.5-14.1,9.8-22.6,9.8s-16-3.3-22.6-9.8L19.8,506.9c-6.5-6.5-9.8-14.1-9.8-22.6s3.3-16,9.8-22.6l49.1-49.1c6.5-6.5,14.1-9.8,22.6-9.8s16,3.3,22.6,9.8L500,798.5,885.9,412.6c6.5-6.5,14.1-9.8,22.6-9.8s16,3.3,22.6,9.8l49.1,49.1C986.7,468.2,990,475.8,990,484.3Zm0-377.1c0,8.5-3.3,16-9.8,22.6L522.6,587.4c-6.5,6.5-14.1,9.8-22.6,9.8s-16-3.3-22.6-9.8L19.8,129.8c-6.5-6.5-9.8-14.1-9.8-22.6s3.3-16,9.8-22.6L68.9,35.5C75.4,29,83,25.7,91.5,25.7s16,3.3,22.6,9.8L500,421.4,885.9,35.5c6.5-6.5,14.1-9.8,22.6-9.8s16,3.3,22.6,9.8l49.1,49.1C986.7,91.2,990,98.7,990,107.2Z" transform="translate(-10 -25.7)"/></svg>